<?xml version="1.0" encoding="UTF-8" standalone="no"?>
<!DOCTYPE svg PUBLIC "-//W3C//DTD SVG 1.1//EN" "http://www.w3.org/Graphics/SVG/1.1/DTD/svg11.dtd">
<svg width="100%" height="100%" viewBox="0 0 1024 1024" version="1.1" xmlns="http://www.w3.org/2000/svg" xmlns:xlink="http://www.w3.org/1999/xlink" xml:space="preserve" xmlns:serif="http://www.serif.com/" style="fill-rule:evenodd;clip-rule:evenodd;stroke-linejoin:round;">
    <g>
        <g transform="matrix(0.901728,0,0,0.900571,50.315335,51.156)">
            <path d="M105,745C105,1021 918,1021 919,745L919,427C939,401 957.667,374 975,346C951.667,306.667 924,270.667 892,238C863.333,251.333 836,267 810,285C783.333,260.333 754,239 722,221C726.667,187 729.333,153 730,119C690.667,100.333 649.667,86.333 607,77C589.667,105.667 574.333,135.333 561,166C528.333,161.333 495.667,161.333 463,166C449.667,135.333 434.333,105.667 417,77C374.333,86.333 333.333,100.333 294,119C294.667,153 297.333,187 302,221C270,239 240.667,260.333 214,285C188,267 160.667,251.333 132,238C100,270.667 72.333,306.667 49,346C66.333,374 85,401 105,427L105,745Z" style="fill:rgb(245,250,254);fill-rule:nonzero;stroke:rgb(142,198,239);stroke-width:128px;"/>
        </g>
        <g transform="matrix(1,0,0,1.007758,46.411844,37.222222)">
            <path d="M253.588,399.677L253.588,598.137" style="fill:none;stroke:rgb(22,101,158);stroke-width:63.75px;stroke-linecap:square;stroke-miterlimit:1.5;"/>
        </g>
    </g>
</svg>
